<?xml version="1.0" standalone="no"?>
<!DOCTYPE svg PUBLIC "-//W3C//DTD SVG 20010904//EN"
 "http://www.w3.org/TR/2001/REC-SVG-20010904/DTD/svg10.dtd">
<svg version="1.0" xmlns="http://www.w3.org/2000/svg"
 width="820.000000pt" height="826.000000pt" viewBox="0 0 820.000000 826.000000"
 preserveAspectRatio="xMidYMid meet">

<g transform="translate(0.000000,826.000000) scale(0.100000,-0.100000)"
fill="#000000" stroke="none">
<path d="M4090 8003 c0 -162 -52 -500 -116 -754 -242 -968 -824 -1812 -1644
-2386 -399 -279 -870 -494 -1345 -612 -227 -57 -583 -111 -727 -111 -32 0 -58
-4 -58 -10 0 -5 25 -10 55 -10 84 0 324 -28 475 -56 275 -51 510 -118 770
-221 775 -307 1440 -847 1908 -1550 389 -583 641 -1316 678 -1977 4 -63 10
-113 14 -111 4 2 10 56 14 119 4 64 17 189 30 278 99 677 363 1317 769 1864
130 175 206 265 361 423 608 620 1355 1020 2196 1175 151 28 390 56 475 56 30
0 55 5 55 10 0 6 -26 10 -57 10 -225 0 -701 90 -999 188 -410 135 -820 345
-1154 593 -464 343 -856 780 -1134 1263 -308 534 -508 1181 -542 1752 -7 120
-24 167 -24 67z"/>
</g>
</svg>
