<svg><defs/><symbol id="discord-svgrepo-com" viewBox="0 0 24 24"><path fill="#210039" d="M18.59 5.89c-1.23-.57-2.54-.99-3.92-1.23-.17.3-.37.71-.5 1.04-1.46-.22-2.91-.22-4.34 0-.14-.33-.34-.74-.51-1.04-1.38.24-2.69.66-3.92 1.23-2.48 3.74-3.15 7.39-2.82 10.98 1.65 1.23 3.24 1.97 4.81 2.46.39-.53.73-1.1 1.03-1.69-.57-.21-1.11-.48-1.62-.79.14-.1.27-.21.4-.31 3.13 1.46 6.52 1.46 9.61 0 .13.11.26.21.4.31-.51.31-1.06.57-1.62.79.3.59.64 1.16 1.03 1.69 1.57-.49 3.17-1.23 4.81-2.46.39-4.17-.67-7.78-2.82-10.98zm-9.75 8.78c-.94 0-1.71-.87-1.71-1.94s.75-1.94 1.71-1.94 1.72.87 1.71 1.94c0 1.06-.75 1.94-1.71 1.94m6.31 0c-.94 0-1.71-.87-1.71-1.94s.75-1.94 1.71-1.94 1.72.87 1.71 1.94c0 1.06-.75 1.94-1.71 1.94"/></symbol><symbol id="facebook-svgrepo-com" viewBox="0 0 24 24"><path d="M12 2.04c-5.5 0-10 4.49-10 10.02 0 5 3.66 9.15 8.44 9.9v-7H7.9v-2.9h2.54V9.85c0-2.51 1.49-3.89 3.78-3.89 1.09 0 2.23.19 2.23.19v2.47h-1.26c-1.24 0-1.63.77-1.63 1.56v1.88h2.78l-.45 2.9h-2.33v7a10 10 0 0 0 8.44-9.9c0-5.53-4.5-10.02-10-10.02"/></symbol><symbol id="instagram-167-svgrepo-com" viewBox="0 0 20 20"><path fill="#210039" fill-rule="evenodd" d="M5.87.123C4.242.196 2.83.594 1.69 1.729.548 2.869.155 4.286.081 5.897.037 6.902-.231 14.498.545 16.49a5.04 5.04 0 0 0 2.91 2.903c.634.246 1.356.412 2.416.461 8.86.401 12.145.183 13.53-3.364.246-.631.415-1.353.462-2.41.405-8.883-.066-10.809-1.61-12.351C17.027.507 15.586-.325 5.87.123m.081 17.944c-.97-.043-1.496-.205-1.848-.341a3.26 3.26 0 0 1-1.888-1.883c-.591-1.514-.395-8.703-.342-9.866.051-1.14.282-2.18 1.086-2.985C3.954 2 5.24 1.513 13.993 1.908c1.142.052 2.186.282 2.992 1.084.995.993 1.489 2.288 1.087 11.008-.044.968-.206 1.493-.342 1.843-.901 2.308-2.973 2.628-11.779 2.224M14.09 4.69c0 .657.534 1.19 1.194 1.19s1.195-.533 1.195-1.19a1.194 1.194 0 0 0-2.39 0M4.864 9.988a5.103 5.103 0 0 0 5.11 5.097 5.103 5.103 0 0 0 5.109-5.097 5.1 5.1 0 0 0-5.11-5.096 5.1 5.1 0 0 0-5.11 5.096m1.794 0A3.313 3.313 0 0 1 9.972 6.68a3.313 3.313 0 0 1 3.317 3.308 3.313 3.313 0 0 1-3.317 3.31 3.313 3.313 0 0 1-3.316-3.31"/></symbol><symbol id="linkedin-161-svgrepo-com" viewBox="0 0 20 20"><path fill="#210039" fill-rule="evenodd" d="M20 20h-4v-6.999c0-1.92-.847-2.991-2.366-2.991-1.653 0-2.634 1.116-2.634 2.991V20H7V7h4v1.462s1.255-2.202 4.083-2.202S20 7.986 20 11.558zM2.442 4.921A2.45 2.45 0 0 1 0 2.46 2.45 2.45 0 0 1 2.442 0a2.45 2.45 0 0 1 2.441 2.46 2.45 2.45 0 0 1-2.441 2.461M0 20h5V7H0z"/></symbol><symbol id="luma" viewBox="0 0 820 826"><path fill="#210039" d="M409 25.7c0 16.2-5.2 50-11.6 75.4C373.2 197.9 315 282.3 233 339.7c-39.9 27.9-87 49.4-134.5 61.2-22.7 5.7-58.3 11.1-72.7 11.1-3.2 0-5.8.4-5.8 1 0 .5 2.5 1 5.5 1 8.4 0 32.4 2.8 47.5 5.6 27.5 5.1 51 11.8 77 22.1 77.5 30.7 144 84.7 190.8 155 38.9 58.3 64.1 131.6 67.8 197.7.4 6.3 1 11.3 1.4 11.1s1-5.6 1.4-11.9c.4-6.4 1.7-18.9 3-27.8 9.9-67.7 36.3-131.7 76.9-186.4 13-17.5 20.6-26.5 36.1-42.3 60.8-62 135.5-102 219.6-117.5 15.1-2.8 39-5.6 47.5-5.6 3 0 5.5-.5 5.5-1 0-.6-2.6-1-5.7-1-22.5 0-70.1-9-99.9-18.8-41-13.5-82-34.5-115.4-59.3-46.4-34.3-85.6-78-113.4-126.3-30.8-53.4-50.8-118.1-54.2-175.2-.7-12-2.4-16.7-2.4-6.7"/></symbol><symbol id="meetup-svgrepo-com" viewBox="0 0 24 24"><path fill="#210039" d="M6.98.555a.5.5 0 0 0-.105.011.53.53 0 1 0 .223 1.04.533.533 0 0 0 .408-.633.53.53 0 0 0-.526-.418m6.456.638a1 1 0 0 0-.514.143.99.99 0 1 0 1.02 1.7.99.99 0 0 0 .34-1.36.99.99 0 0 0-.846-.483m-3.03 2.237a5.03 5.03 0 0 0-4.668 3.248 3.3 3.3 0 0 0-1.46.55 3.374 3.374 0 0 0-.94 4.563 3.634 3.634 0 0 0-.606 4.649 3.6 3.6 0 0 0 2.465 1.597 3.86 3.86 0 0 0 .686 2.113 3.9 3.9 0 0 0 5.424.993c.067-.047.12-.106.183-.157.987.881 2.471 1.026 3.608.24a2.9 2.9 0 0 0 1.162-1.69 4.24 4.24 0 0 0 2.584-.74 4.274 4.274 0 0 0 1.19-5.788 2.466 2.466 0 0 0 .433-3.309 2.45 2.45 0 0 0-1.317-.933 4.44 4.44 0 0 0-.775-2.873 4.47 4.47 0 0 0-5.195-1.657 5.1 5.1 0 0 0-2.774-.806m-5.603.816a.76.76 0 0 0-.424.135.758.758 0 1 0 .863 1.248.757.757 0 0 0 .194-1.055.76.76 0 0 0-.633-.328m15.994 2.371a.84.84 0 0 0-.47.15.845.845 0 1 0 1.175.215.85.85 0 0 0-.705-.365m-8.15 1.027q.095.001.181.014a.9.9 0 0 1 .451.188c.169.134.273.24.432.392.24.228.413.09.533.02.208-.121.37-.218.985-.207.633.01 1.362.236 1.513 1.316.168 1.2-1.965 4.29-1.816 5.723.105 1.01 1.815.298 1.959 1.22.187 1.197-2.135.752-2.666.493-.832-.408-1.337-1.34-1.121-2.26.161-.688 1.7-3.498 1.758-3.93.058-.44-.178-.477-.325-.484-.19-.01-.339.08-.525.361-.17.256-2.082 4.086-2.248 4.399-.297.559-.67.693-1.045.673-.547-.028-.798-.32-.719-.847.047-.31 1.26-3.05 1.323-3.477.038-.264-.014-.545-.276-.68-.262-.134-.571.07-.664.227-.128.215-1.848 4.707-2.031 5.04-.317.575-.651.759-1.152.782-1.187.056-2.066-.919-1.678-2.115.173-.533 1.316-4.572 1.894-5.6.39-.69 1.468-1.216 2.217-.892.388.168.925.438 1.084.508.366.162.76-.278.914-.412.155-.135.302-.277.49-.358a1.5 1.5 0 0 1 .531-.094zm10.88 2.057a.5.5 0 0 0-.093.012.467.467 0 0 0-.36.555.47.47 0 0 0 .557.359.47.47 0 0 0 .36-.557.47.47 0 0 0-.464-.369m-22.52.81a1 1 0 0 0-.831.434 1 1 0 1 0 1.39-.258 1 1 0 0 0-.558-.175m21.296 2.094a.6.6 0 0 0-.127.014.627.627 0 0 0-.48.746.63.63 0 0 0 .746.483.63.63 0 0 0 .482-.747.63.63 0 0 0-.621-.496m-18.24 6.098a.5.5 0 0 0-.092.012.464.464 0 1 0 .195.908.464.464 0 0 0 .355-.553.466.466 0 0 0-.459-.367m13.675 1.55a1.04 1.04 0 0 0-.584.186 1.047 1.047 0 1 0 1.457.266 1.04 1.04 0 0 0-.873-.451m-6.338 1.9a.64.64 0 0 0-.36.115.646.646 0 0 0-.163.899.646.646 0 0 0 .898.164.646.646 0 0 0 .164-.898.65.65 0 0 0-.539-.28"/></symbol><symbol id="signal-svgrepo-com" viewBox="0 0 32 32"><path fill="#210039" d="M16 3.816C9.274 3.82 3.822 9.273 3.822 16c0 2.404.696 4.645 1.897 6.533l-.029-.049-1.172 4.999 4.999-1.172a12.07 12.07 0 0 0 6.493 1.874c6.729 0 12.184-5.455 12.184-12.184S22.739 3.817 16.01 3.817h-.011zM9.041 27.688l-2.012.469.319 1.368 1.481-.344a14.5 14.5 0 0 0 3.46 1.36l.103.022.337-1.363a13.5 13.5 0 0 1-3.738-1.555l.06.034zM2.48 24.642l1.368.319.469-2.012a13.3 13.3 0 0 1-1.492-3.596l-.02-.093-1.362.337a15 15 0 0 0 1.421 3.64l-.039-.076zm3.302 3.801-2.903.679.677-2.903-1.368-.321-.677 2.903a1.406 1.406 0 0 0 1.699 1.688l-.01.002 2.9-.665zm8.182-25.882c.612-.097 1.317-.152 2.036-.152s1.424.055 2.112.162l-.077-.01.214-1.39a15 15 0 0 0-4.579.011l.085-.011zM28.84 8.248l-1.205.721a13.3 13.3 0 0 1 1.538 3.669l.02.094 1.363-.337a15 15 0 0 0-1.754-4.212l.037.065zm-23.779-.31a13.7 13.7 0 0 1 2.843-2.853l.036-.026-.844-1.132a15.1 15.1 0 0 0-3.139 3.128l-.028.04zM24.06 5.059a13.7 13.7 0 0 1 2.853 2.843l.026.036 1.132-.843a15.1 15.1 0 0 0-3.128-3.139l-.04-.028zm2.879 19.004a13.8 13.8 0 0 1-2.843 2.851l-.036.026.835 1.132a15.2 15.2 0 0 0 3.148-3.128l.028-.04zm-8.903 5.377c-.612.097-1.317.152-2.036.152s-1.424-.055-2.112-.162l.077.01-.212 1.39a15 15 0 0 0 4.579-.011l-.085.011zm12.521-9.841-1.362-.337a13.6 13.6 0 0 1-1.593 3.827l.034-.059 1.205.726a14.7 14.7 0 0 0 1.695-4.053l.022-.103zM29.59 16v.009q0 1.075-.162 2.104l.01-.076 1.39.21c.107-.675.169-1.454.169-2.247s-.061-1.572-.18-2.331l.011.085-1.39.211c.097.61.152 1.312.152 2.028v.009zm-5.838 12.839-.722-1.205a13.3 13.3 0 0 1-3.669 1.538l-.094.02.337 1.363a15 15 0 0 0 4.213-1.754l-.065.037zM2.41 15.999v-.009q0-1.075.162-2.104l-.01.076-1.39-.21a15.2 15.2 0 0 0 .01 4.578l-.011-.085 1.39-.211a13 13 0 0 1-.152-2.028zm.75-7.751a14.7 14.7 0 0 0-1.695 4.048l-.022.103 1.362.337A13.5 13.5 0 0 1 4.4 8.909l-.034.059zm16.439-6.806-.337 1.362c1.428.358 2.683.893 3.827 1.593l-.059-.034.726-1.205a14.7 14.7 0 0 0-4.053-1.695zm-7.198 0 .337 1.362a13.6 13.6 0 0 0-3.827 1.593l.059-.034-.722-1.205a14.7 14.7 0 0 1 4.049-1.695z"/></symbol><symbol id="telegram-fill-svgrepo-com" viewBox="0 0 24 24"><path fill="#210039" fill-rule="evenodd" d="M22 12c0 5.523-4.477 10-10 10S2 17.523 2 12 6.477 2 12 2s10 4.477 10 10m-9.642-2.618q-1.458.607-5.831 2.512-.711.283-.744.553c-.039.304.343.424.862.587l.218.07c.51.166 1.198.36 1.555.368q.486.01 1.084-.4 4.086-2.76 4.218-2.789c.063-.014.149-.032.207.02.059.052.053.15.047.177-.038.161-1.534 1.552-2.308 2.271-.241.225-.413.384-.448.42a9 9 0 0 1-.235.233c-.474.457-.83.8.02 1.36.408.27.735.492 1.061.714.356.242.711.484 1.17.785q.177.116.338.234c.415.296.787.56 1.247.518.267-.024.543-.275.683-1.025.332-1.77.983-5.608 1.133-7.19a1.8 1.8 0 0 0-.017-.393.42.42 0 0 0-.142-.27c-.12-.098-.305-.118-.387-.117-.376.007-.954.207-3.73 1.362" clip-rule="evenodd"/></symbol><symbol id="tiktok-svgrepo-com" viewBox="0 0 24 24"><path d="M21 7v2a1 1 0 0 1-1 1 8 8 0 0 1-4-1.08v6.58a6.5 6.5 0 1 1-9.47-5.78 1 1 0 0 1 1.47.9v2.52a.92.92 0 0 1-.28.62 2.49 2.49 0 0 0 2 4.23A2.61 2.61 0 0 0 12 15.35V3a1 1 0 0 1 1-1h2.11a1 1 0 0 1 1 .83A4 4 0 0 0 20 6a1 1 0 0 1 1 1" style="fill:#210039"/></symbol><symbol id="twitter-154-svgrepo-com" viewBox="0 -2 20 20"><path fill="#210039" fill-rule="evenodd" d="M6.29 16c7.547 0 11.675-6.156 11.675-11.495 0-.175 0-.349-.012-.522A8.3 8.3 0 0 0 20 1.89a8.3 8.3 0 0 1-2.356.637A4.07 4.07 0 0 0 19.448.293a8.3 8.3 0 0 1-2.606.98 4.153 4.153 0 0 0-5.806-.175 4 4 0 0 0-1.187 3.86A11.72 11.72 0 0 1 1.392.738 4.005 4.005 0 0 0 2.663 6.13 4.1 4.1 0 0 1 .8 5.625v.051C.801 7.6 2.178 9.255 4.092 9.636a4.14 4.14 0 0 1-1.852.069c.537 1.646 2.078 2.773 3.833 2.806A8.32 8.32 0 0 1 0 14.185a11.75 11.75 0 0 0 6.29 1.812"/></symbol><symbol id="whatsapp-whats-app-svgrepo-com" viewBox="0 0 32 32"><path fill="#210039" d="M17 0C8.7 0 2 6.7 2 15c0 3.4 1.1 6.6 3.2 9.2l-2.1 6.4c-.1.4 0 .8.3 1.1.1.2.4.3.6.3.1 0 .3 0 .4-.1l6.9-3.1Q14 30 17 30c8.3 0 15-6.7 15-15S25.3 0 17 0m8.7 20.5c-.4 1.2-1.9 2.2-3.2 2.4-.3.1-.6.1-1 .1-.8 0-2-.2-4.1-1.1-2.4-1-4.8-3.1-6.7-5.8V16c-.6-.9-1.7-2.6-1.7-4.4 0-2.2 1.1-3.3 1.5-3.8.5-.5 1.2-.8 2-.8h.5c.7 0 1.2.2 1.7 1.2l.4.8c.3.8.7 1.7.8 1.8.3.6.3 1.1 0 1.6-.1.3-.3.5-.5.7q-.15.3-.3.3l-.2.2c.3.5.9 1.4 1.7 2.1 1.2 1.1 2.1 1.4 2.6 1.6.2-.2.4-.6.7-.9l.1-.2c.5-.7 1.3-.9 2.1-.6.4.2 2.6 1.2 2.6 1.2l.2.1c.3.2.7.3.9.7.4.9.1 2.2-.1 2.9"/></symbol><symbol id="youtube-168-svgrepo-com" viewBox="0 -3 20 20"><path fill="#210039" fill-rule="evenodd" d="M7.988 9.586V3.974c1.993.938 3.536 1.843 5.36 2.82-1.505.834-3.367 1.77-5.36 2.792m11.103-8.403c-.344-.453-.93-.805-1.553-.922-1.833-.348-13.267-.349-15.099 0q-.752.142-1.328.673C-.5 2.429.005 10.452.393 11.75c.164.562.375.968.64 1.235.343.352.812.594 1.351.703 1.51.312 9.284.486 15.122.047a2.6 2.6 0 0 0 1.39-.712c1.49-1.49 1.388-9.962.195-11.841"/></symbol></svg>